<?xml version="1.0" standalone="no"?>
<!DOCTYPE svg PUBLIC "-//W3C//DTD SVG 20010904//EN"
 "http://www.w3.org/TR/2001/REC-SVG-20010904/DTD/svg10.dtd">
<svg version="1.0" xmlns="http://www.w3.org/2000/svg"
 width="200.000000pt" height="200.000000pt" viewBox="0 0 200.000000 200.000000"
 preserveAspectRatio="xMidYMid meet">

<g transform="translate(0.000000,200.000000) scale(0.100000,-0.100000)"
fill="#000000" stroke="none">
<path d="M533 1371 c-78 -14 -142 -30 -142 -36 -1 -5 32 -18 71 -28 136 -34
148 -38 148 -50 0 -7 -46 -43 -102 -82 -128 -89 -152 -91 -220 -26 -26 25 -49
43 -52 40 -2 -2 -14 -57 -25 -121 l-22 -117 27 -93 c14 -51 30 -97 35 -102 13
-14 12 -10 -16 85 -13 46 -25 89 -25 95 0 5 27 29 60 52 67 48 94 49 142 5
l26 -25 -74 -108 c-47 -69 -72 -114 -68 -124 3 -9 8 -16 9 -16 2 0 50 25 106
55 85 45 109 54 135 49 26 -5 35 -2 46 15 9 14 23 21 45 21 18 0 33 -3 33 -6
0 -3 -18 -40 -40 -82 -29 -57 -48 -81 -70 -90 -25 -11 -29 -18 -24 -35 20 -69
96 -46 79 25 -3 16 9 48 38 103 41 76 45 80 80 83 30 3 36 0 31 -12 -3 -9 -17
-16 -30 -16 -15 0 -24 -6 -24 -15 0 -10 10 -15 34 -15 27 0 39 7 56 30 21 29
23 30 106 30 68 0 84 3 84 15 0 8 9 15 20 15 19 0 20 7 20 94 0 85 2 94 20 99
26 7 26 27 0 34 -37 10 -18 41 33 57 26 8 11 26 -23 26 -44 0 -58 -9 -70 -46
-6 -19 -18 -34 -26 -34 -19 0 -18 -29 1 -36 12 -5 15 -24 14 -88 l0 -81 -41
130 c-22 72 -42 132 -44 134 -10 12 -13 -9 -5 -32 8 -20 7 -26 -8 -30 -12 -3
-31 -41 -61 -126 l-42 -121 -34 0 c-40 0 -40 2 -10 59 l23 44 10 -29 11 -29
11 27 c6 17 7 36 2 50 -7 18 0 40 34 105 34 63 41 82 30 87 -8 3 -32 -15 -58
-44 -33 -37 -46 -46 -51 -35 -6 17 -46 21 -46 4 0 -6 5 -19 10 -30 9 -16 4
-28 -32 -70 -42 -50 -75 -75 -85 -66 -8 9 19 116 33 127 6 6 10 19 7 30 -8 29
16 116 37 135 16 15 23 15 94 -4 49 -12 76 -15 73 -8 -2 6 -34 19 -71 28 -67
17 -100 41 -91 67 3 8 5 20 5 28 0 26 21 15 91 -48 38 -33 72 -59 75 -56 2 3
-10 18 -28 33 -18 15 -57 49 -86 76 -29 27 -54 48 -55 48 -1 -1 -66 -13 -144
-28z m130 -26 c-3 -13 -16 -31 -29 -40 -25 -16 -28 -16 -146 17 l-43 12 85 17
c126 25 138 24 133 -6z m-84 -172 c-18 -28 -48 -60 -66 -72 -24 -15 -36 -34
-45 -66 -7 -25 -15 -45 -18 -45 -4 0 -16 10 -27 23 -28 29 -20 72 16 95 14 9
57 40 96 69 38 28 71 50 73 48 2 -2 -11 -25 -29 -52z m40 -11 c-8 -35 -16 -49
-25 -45 -20 7 -30 -28 -12 -38 14 -8 14 -16 0 -76 -9 -38 -18 -70 -20 -73 -2
-3 -12 6 -23 19 -26 32 -25 96 1 118 11 10 20 25 20 35 0 17 61 120 68 114 1
-2 -3 -26 -9 -54z m-332 -44 c47 -45 43 -69 -17 -113 -28 -21 -52 -36 -54 -34
-5 6 27 179 33 179 3 0 20 -14 38 -32z m512 -30 c-27 -53 -25 -52 -32 -34 -5
13 36 76 49 76 2 0 -5 -19 -17 -42z m145 -111 l34 -107 -79 0 -78 0 26 68 c14
37 32 86 40 110 9 24 17 41 19 39 2 -2 19 -52 38 -110z m-227 -41 c-28 -54
-36 -61 -65 -64 -68 -7 -67 4 4 84 61 67 70 73 81 58 10 -14 7 -27 -20 -78z
m-228 -20 c18 -19 31 -42 29 -51 -3 -15 -188 -124 -211 -125 -5 0 24 47 64
105 40 58 75 105 79 105 3 0 21 -15 39 -34z"/>
<path d="M1187 1100 c-31 -25 -51 -80 -42 -119 8 -38 48 -78 85 -86 37 -8 92
19 83 41 -3 9 -12 13 -22 8 -39 -16 -60 -15 -80 5 -29 29 -28 82 4 119 42 51
23 72 -28 32z"/>
<path d="M1250 1105 c0 -10 11 -26 25 -37 39 -31 32 -48 -20 -48 -33 0 -45 -4
-45 -15 0 -12 14 -15 70 -15 39 0 70 3 70 8 0 24 -23 81 -38 94 -28 26 -62 32
-62 13z"/>
<path d="M1410 1005 c0 -115 0 -116 23 -113 21 3 22 7 22 113 0 106 -1 110
-22 113 -23 3 -23 2 -23 -113z"/>
<path d="M1483 1113 c-7 -2 -13 -13 -13 -24 0 -15 7 -19 35 -19 31 0 35 3 35
25 0 19 -5 25 -22 24 -13 0 -29 -3 -35 -6z"/>
</g>
</svg>
