<?xml version="1.0" standalone="no"?>
<!DOCTYPE svg PUBLIC "-//W3C//DTD SVG 20010904//EN"
 "http://www.w3.org/TR/2001/REC-SVG-20010904/DTD/svg10.dtd">
<svg version="1.0" xmlns="http://www.w3.org/2000/svg"
 width="200.000000pt" height="200.000000pt" viewBox="0 0 200.000000 200.000000"
 preserveAspectRatio="xMidYMid meet">

<g transform="translate(0.000000,200.000000) scale(0.100000,-0.100000)"
fill="#000000" stroke="none">
<path d="M505 1366 c-66 -12 -119 -26 -118 -31 2 -6 36 -18 75 -28 143 -36
142 -35 156 -65 11 -25 9 -42 -8 -113 -12 -46 -25 -104 -30 -129 -4 -25 -11
-57 -15 -71 -8 -33 19 -47 45 -24 9 8 22 15 28 15 7 0 12 6 12 14 0 23 111
139 122 128 6 -6 -9 -43 -37 -96 -26 -48 -45 -90 -41 -93 8 -9 9 -8 50 75 20
40 41 70 46 67 5 -3 14 -22 21 -42 10 -31 13 -34 22 -18 7 13 5 31 -7 66 -17
47 -17 47 9 99 47 94 15 79 -96 -44 -102 -113 -118 -123 -119 -70 0 11 7 29
15 40 19 25 19 44 -1 44 -9 0 -14 6 -11 13 2 6 10 37 17 68 17 74 33 84 109
64 66 -17 95 -19 87 -6 -3 4 -33 14 -67 21 -79 17 -98 37 -91 96 5 43 4 44
-24 43 -16 -1 -83 -11 -149 -23z m158 -21 c-3 -13 -16 -31 -29 -40 -25 -16
-28 -16 -146 17 l-43 12 85 17 c126 25 138 24 133 -6z m147 -235 c-6 -11 -16
-20 -22 -20 -6 0 -3 9 7 20 10 11 20 20 22 20 2 0 -1 -9 -7 -20z m-211 -186
c-14 -18 -24 -11 -15 11 3 9 11 13 16 10 8 -5 7 -11 -1 -21z"/>
<path d="M215 1093 c-9 -54 -19 -109 -22 -123 -4 -19 -3 -22 6 -14 7 6 19 51
28 100 9 49 18 91 20 93 4 6 82 -69 81 -78 -3 -28 6 -41 30 -47 15 -4 39 -18
53 -31 15 -14 29 -20 33 -15 3 5 -6 20 -20 33 -18 17 -23 30 -20 51 5 32 -5
41 -44 40 -20 0 -39 12 -71 44 -24 24 -46 44 -50 44 -4 0 -14 -44 -24 -97z"/>
<path d="M1006 1144 c-9 -8 -16 -24 -16 -35 0 -10 -7 -19 -15 -19 -8 0 -15 -4
-15 -10 0 -5 5 -10 10 -10 6 0 10 -32 10 -75 0 -68 2 -75 20 -75 18 0 20 7 20
75 0 60 3 75 15 75 8 0 15 5 15 10 0 6 -4 10 -10 10 -5 0 -10 9 -10 20 0 13 7
20 20 20 11 0 20 7 20 15 0 20 -44 20 -64 -1z"/>
<path d="M902 1092 c-6 -5 -25 -47 -41 -94 -37 -109 -47 -128 -71 -128 -24 0
-27 -18 -4 -27 34 -13 59 13 88 93 15 44 35 94 44 112 15 34 7 58 -16 44z"/>
<path d="M660 1080 c0 -13 38 -32 51 -25 14 10 -9 35 -32 35 -11 0 -19 -4 -19
-10z"/>
<path d="M1143 1075 c-44 -31 -35 -131 12 -149 29 -11 72 -6 85 9 13 16 10 18
-33 15 -15 -1 -35 4 -43 10 -21 18 -18 74 6 95 37 33 15 49 -27 20z"/>
<path d="M1200 1076 c0 -8 7 -16 15 -20 30 -11 17 -36 -20 -36 -24 0 -35 -5
-35 -15 0 -12 13 -15 55 -15 51 0 55 2 55 24 0 28 -35 76 -56 76 -8 0 -14 -6
-14 -14z"/>
<path d="M1320 1005 c0 -78 2 -85 20 -85 18 0 20 7 20 85 0 78 -2 85 -20 85
-18 0 -20 -7 -20 -85z"/>
<path d="M1370 1075 c0 -9 9 -15 25 -15 16 0 25 6 25 15 0 9 -9 15 -25 15 -16
0 -25 -6 -25 -15z"/>
<path d="M450 962 c0 -14 76 -83 83 -75 4 4 -9 24 -30 45 -36 37 -53 47 -53
30z"/>
<path d="M674 946 c-10 -8 -16 -17 -12 -21 11 -11 48 5 48 21 0 18 -11 18 -36
0z"/>
<path d="M673 848 c-6 -7 -27 -46 -47 -85 -20 -40 -42 -73 -50 -73 -24 0 -45
-33 -35 -58 7 -18 15 -23 35 -20 34 4 53 31 38 55 -8 14 -1 34 34 101 24 46
42 85 40 88 -3 2 -10 -1 -15 -8z"/>
</g>
</svg>
