<?xml version="1.0" standalone="no"?>
<!DOCTYPE svg PUBLIC "-//W3C//DTD SVG 20010904//EN"
 "http://www.w3.org/TR/2001/REC-SVG-20010904/DTD/svg10.dtd">
<svg version="1.0" xmlns="http://www.w3.org/2000/svg"
 width="200.000000pt" height="200.000000pt" viewBox="0 0 200.000000 200.000000"
 preserveAspectRatio="xMidYMid meet">

<g transform="translate(0.000000,200.000000) scale(0.100000,-0.100000)"
fill="#000000" stroke="none">
<path d="M545 1370 c-55 -11 -116 -22 -135 -25 -45 -9 -30 -16 90 -45 111 -27
143 -52 130 -104 -5 -17 -11 -43 -14 -57 -4 -17 -12 -26 -23 -25 -9 0 -19 -7
-21 -16 -2 -12 3 -18 13 -18 13 0 16 -6 12 -22 -3 -13 -11 -49 -18 -81 l-12
-57 -24 22 c-31 29 -33 100 -3 125 21 19 27 53 9 53 -6 0 -24 -9 -39 -20 -84
-60 -48 -210 50 -208 32 0 44 8 98 68 34 38 62 72 62 76 0 4 -24 -16 -54 -45
-75 -70 -89 -69 -69 7 8 31 21 64 29 73 8 9 10 19 5 25 -14 14 14 123 36 140
23 17 26 17 93 -1 30 -8 60 -15 65 -15 20 1 -22 18 -73 30 -60 14 -77 35 -77
95 0 49 -1 49 -130 25z m121 -12 c-3 -13 -6 -28 -6 -33 0 -6 -13 -16 -29 -23
-25 -11 -41 -10 -106 7 -42 11 -79 22 -82 24 -2 3 29 10 69 17 40 7 89 16 108
20 52 12 53 12 46 -12z"/>
<path d="M1013 1194 c-7 -3 -17 -21 -23 -40 -6 -19 -18 -34 -26 -34 -19 0 -18
-29 1 -36 12 -5 15 -26 15 -100 0 -94 0 -94 25 -94 25 0 25 0 25 94 0 85 2 94
20 99 26 7 26 27 0 34 -37 10 -18 41 33 57 10 3 15 10 12 16 -6 10 -60 12 -82
4z"/>
<path d="M213 1070 c-11 -61 -16 -107 -11 -102 4 4 15 48 24 97 9 50 18 92 20
94 3 3 23 -13 47 -35 l42 -39 -45 48 c-24 26 -47 47 -50 47 -4 0 -16 -50 -27
-110z"/>
<path d="M796 1134 c-33 -38 -41 -43 -48 -30 -9 17 -48 23 -48 8 0 -5 18 -51
39 -103 38 -90 40 -93 50 -66 9 22 7 38 -9 79 l-19 51 31 36 c17 20 37 40 45
44 14 9 18 27 6 27 -5 -1 -26 -21 -47 -46z"/>
<path d="M866 1111 c-3 -5 -23 -58 -45 -117 -55 -154 -60 -164 -88 -164 -14 0
-23 -6 -23 -15 0 -10 11 -15 35 -15 26 0 39 6 51 25 16 25 114 271 114 287 0
11 -38 10 -44 -1z"/>
<path d="M1187 1100 c-31 -25 -51 -80 -42 -119 8 -38 48 -78 85 -86 37 -8 92
19 83 41 -3 9 -12 13 -22 8 -39 -16 -60 -15 -80 5 -29 29 -28 82 4 119 42 51
23 72 -28 32z"/>
<path d="M1250 1105 c0 -10 11 -26 25 -37 39 -31 32 -48 -20 -48 -33 0 -45 -4
-45 -15 0 -12 14 -15 70 -15 39 0 70 3 70 8 0 24 -23 81 -38 94 -28 26 -62 32
-62 13z"/>
<path d="M1410 1005 c0 -115 0 -116 23 -113 21 3 22 7 22 113 0 106 -1 110
-22 113 -23 3 -23 2 -23 -113z"/>
<path d="M1483 1113 c-7 -2 -13 -13 -13 -24 0 -15 7 -19 35 -19 31 0 35 3 35
25 0 19 -5 25 -22 24 -13 0 -29 -3 -35 -6z"/>
<path d="M410 1005 c13 -14 26 -25 28 -25 3 0 -5 11 -18 25 -13 14 -26 25 -28
25 -3 0 5 -11 18 -25z"/>
</g>
</svg>
